<mxfile host="Electron" modified="2023-09-20T19:24:29.290Z" agent="Mozilla/5.0 (Windows NT 10.0; Win64; x64) AppleWebKit/537.36 (KHTML, like Gecko) draw.io/21.6.8 Chrome/114.0.5735.289 Electron/25.5.0 Safari/537.36" etag="qyrDJgpieOd5d5VnJeko" version="21.6.8" type="device">
  <diagram name="Page-1" id="ezNPBPe-GhRsIRmdCndo">
    <mxGraphModel dx="2245" dy="828" grid="1" gridSize="10" guides="1" tooltips="1" connect="1" arrows="1" fold="1" page="1" pageScale="1" pageWidth="827" pageHeight="1169" math="0" shadow="0">
      <root>
        <mxCell id="0" />
        <mxCell id="1" parent="0" />
        <mxCell id="yzp7PR2JXlGyMq1xNFnX-2" value="VPC" style="points=[[0,0],[0.25,0],[0.5,0],[0.75,0],[1,0],[1,0.25],[1,0.5],[1,0.75],[1,1],[0.75,1],[0.5,1],[0.25,1],[0,1],[0,0.75],[0,0.5],[0,0.25]];outlineConnect=0;gradientColor=none;html=1;whiteSpace=wrap;fontSize=12;fontStyle=0;container=1;pointerEvents=0;collapsible=0;recursiveResize=0;shape=mxgraph.aws4.group;grIcon=mxgraph.aws4.group_vpc;strokeColor=#248814;fillColor=none;verticalAlign=top;align=left;spacingLeft=30;fontColor=#AAB7B8;dashed=0;" vertex="1" parent="1">
          <mxGeometry x="-200" y="70" width="1190" height="760" as="geometry" />
        </mxCell>
        <mxCell id="yzp7PR2JXlGyMq1xNFnX-3" value="" style="sketch=0;points=[[0,0,0],[0.25,0,0],[0.5,0,0],[0.75,0,0],[1,0,0],[0,1,0],[0.25,1,0],[0.5,1,0],[0.75,1,0],[1,1,0],[0,0.25,0],[0,0.5,0],[0,0.75,0],[1,0.25,0],[1,0.5,0],[1,0.75,0]];outlineConnect=0;fontColor=#232F3E;gradientColor=#60A337;gradientDirection=north;fillColor=#277116;strokeColor=#ffffff;dashed=0;verticalLabelPosition=bottom;verticalAlign=top;align=center;html=1;fontSize=12;fontStyle=0;aspect=fixed;shape=mxgraph.aws4.resourceIcon;resIcon=mxgraph.aws4.s3;" vertex="1" parent="yzp7PR2JXlGyMq1xNFnX-2">
          <mxGeometry x="410" y="510" width="78" height="78" as="geometry" />
        </mxCell>
        <mxCell id="yzp7PR2JXlGyMq1xNFnX-8" style="edgeStyle=orthogonalEdgeStyle;rounded=0;orthogonalLoop=1;jettySize=auto;html=1;entryX=0;entryY=0.75;entryDx=0;entryDy=0;entryPerimeter=0;" edge="1" parent="yzp7PR2JXlGyMq1xNFnX-2" source="yzp7PR2JXlGyMq1xNFnX-7" target="yzp7PR2JXlGyMq1xNFnX-3">
          <mxGeometry relative="1" as="geometry" />
        </mxCell>
        <mxCell id="yzp7PR2JXlGyMq1xNFnX-7" value="&lt;b&gt;IAM Policy&lt;/b&gt;" style="sketch=0;outlineConnect=0;fontColor=#232F3E;gradientColor=none;fillColor=#BF0816;strokeColor=none;dashed=0;verticalLabelPosition=bottom;verticalAlign=top;align=center;html=1;fontSize=12;fontStyle=0;aspect=fixed;pointerEvents=1;shape=mxgraph.aws4.permissions;" vertex="1" parent="yzp7PR2JXlGyMq1xNFnX-2">
          <mxGeometry x="88" y="530" width="62" height="78" as="geometry" />
        </mxCell>
        <mxCell id="yzp7PR2JXlGyMq1xNFnX-9" value="ALB-Security group" style="fillColor=none;strokeColor=#DD3522;verticalAlign=top;fontStyle=0;fontColor=#DD3522;whiteSpace=wrap;html=1;" vertex="1" parent="yzp7PR2JXlGyMq1xNFnX-2">
          <mxGeometry x="30" y="210" width="170" height="200" as="geometry" />
        </mxCell>
        <mxCell id="yzp7PR2JXlGyMq1xNFnX-12" style="edgeStyle=orthogonalEdgeStyle;rounded=0;orthogonalLoop=1;jettySize=auto;html=1;entryX=0;entryY=0.5;entryDx=0;entryDy=0;entryPerimeter=0;" edge="1" parent="yzp7PR2JXlGyMq1xNFnX-2" source="yzp7PR2JXlGyMq1xNFnX-10" target="yzp7PR2JXlGyMq1xNFnX-3">
          <mxGeometry relative="1" as="geometry" />
        </mxCell>
        <mxCell id="yzp7PR2JXlGyMq1xNFnX-10" value="" style="sketch=0;outlineConnect=0;fontColor=#232F3E;gradientColor=none;fillColor=#4D27AA;strokeColor=none;dashed=0;verticalLabelPosition=bottom;verticalAlign=top;align=center;html=1;fontSize=12;fontStyle=0;aspect=fixed;pointerEvents=1;shape=mxgraph.aws4.application_load_balancer;" vertex="1" parent="yzp7PR2JXlGyMq1xNFnX-2">
          <mxGeometry x="72" y="271" width="78" height="78" as="geometry" />
        </mxCell>
        <mxCell id="yzp7PR2JXlGyMq1xNFnX-13" value="Public subnet" style="points=[[0,0],[0.25,0],[0.5,0],[0.75,0],[1,0],[1,0.25],[1,0.5],[1,0.75],[1,1],[0.75,1],[0.5,1],[0.25,1],[0,1],[0,0.75],[0,0.5],[0,0.25]];outlineConnect=0;gradientColor=none;html=1;whiteSpace=wrap;fontSize=12;fontStyle=0;container=1;pointerEvents=0;collapsible=0;recursiveResize=0;shape=mxgraph.aws4.group;grIcon=mxgraph.aws4.group_security_group;grStroke=0;strokeColor=#248814;fillColor=#E9F3E6;verticalAlign=top;align=left;spacingLeft=30;fontColor=#248814;dashed=0;" vertex="1" parent="yzp7PR2JXlGyMq1xNFnX-2">
          <mxGeometry x="720" y="50" width="380" height="240" as="geometry" />
        </mxCell>
        <mxCell id="yzp7PR2JXlGyMq1xNFnX-17" value="NGIX-Security group" style="fillColor=none;strokeColor=#DD3522;verticalAlign=top;fontStyle=0;fontColor=#DD3522;whiteSpace=wrap;html=1;" vertex="1" parent="yzp7PR2JXlGyMq1xNFnX-13">
          <mxGeometry x="30" y="35" width="320" height="170" as="geometry" />
        </mxCell>
        <mxCell id="yzp7PR2JXlGyMq1xNFnX-18" value="&lt;b&gt;EC2&lt;/b&gt;" style="sketch=0;points=[[0,0,0],[0.25,0,0],[0.5,0,0],[0.75,0,0],[1,0,0],[0,1,0],[0.25,1,0],[0.5,1,0],[0.75,1,0],[1,1,0],[0,0.25,0],[0,0.5,0],[0,0.75,0],[1,0.25,0],[1,0.5,0],[1,0.75,0]];outlineConnect=0;fontColor=#232F3E;gradientColor=#F78E04;gradientDirection=north;fillColor=#D05C17;strokeColor=#ffffff;dashed=0;verticalLabelPosition=bottom;verticalAlign=top;align=center;html=1;fontSize=12;fontStyle=0;aspect=fixed;shape=mxgraph.aws4.resourceIcon;resIcon=mxgraph.aws4.ec2;" vertex="1" parent="yzp7PR2JXlGyMq1xNFnX-13">
          <mxGeometry x="160" y="81" width="78" height="78" as="geometry" />
        </mxCell>
        <mxCell id="yzp7PR2JXlGyMq1xNFnX-21" value="Private subnet" style="points=[[0,0],[0.25,0],[0.5,0],[0.75,0],[1,0],[1,0.25],[1,0.5],[1,0.75],[1,1],[0.75,1],[0.5,1],[0.25,1],[0,1],[0,0.75],[0,0.5],[0,0.25]];outlineConnect=0;gradientColor=none;html=1;whiteSpace=wrap;fontSize=12;fontStyle=0;container=1;pointerEvents=0;collapsible=0;recursiveResize=0;shape=mxgraph.aws4.group;grIcon=mxgraph.aws4.group_security_group;grStroke=0;strokeColor=#147EBA;fillColor=#E6F2F8;verticalAlign=top;align=left;spacingLeft=30;fontColor=#147EBA;dashed=0;" vertex="1" parent="yzp7PR2JXlGyMq1xNFnX-2">
          <mxGeometry x="720" y="410" width="400" height="230" as="geometry" />
        </mxCell>
        <mxCell id="yzp7PR2JXlGyMq1xNFnX-22" value="RDS-Security group" style="fillColor=none;strokeColor=#DD3522;verticalAlign=top;fontStyle=0;fontColor=#DD3522;whiteSpace=wrap;html=1;" vertex="1" parent="yzp7PR2JXlGyMq1xNFnX-21">
          <mxGeometry x="40" y="30" width="320" height="170" as="geometry" />
        </mxCell>
        <mxCell id="yzp7PR2JXlGyMq1xNFnX-23" value="" style="sketch=0;points=[[0,0,0],[0.25,0,0],[0.5,0,0],[0.75,0,0],[1,0,0],[0,1,0],[0.25,1,0],[0.5,1,0],[0.75,1,0],[1,1,0],[0,0.25,0],[0,0.5,0],[0,0.75,0],[1,0.25,0],[1,0.5,0],[1,0.75,0]];outlineConnect=0;fontColor=#232F3E;gradientColor=#4D72F3;gradientDirection=north;fillColor=#3334B9;strokeColor=#ffffff;dashed=0;verticalLabelPosition=bottom;verticalAlign=top;align=center;html=1;fontSize=12;fontStyle=0;aspect=fixed;shape=mxgraph.aws4.resourceIcon;resIcon=mxgraph.aws4.rds;" vertex="1" parent="yzp7PR2JXlGyMq1xNFnX-21">
          <mxGeometry x="151" y="76" width="78" height="78" as="geometry" />
        </mxCell>
      </root>
    </mxGraphModel>
  </diagram>
</mxfile>
